<svg xmlns="http://www.w3.org/2000/svg" xmlns:xlink="http://www.w3.org/1999/xlink" width="156.255" height="26.954" viewBox="0 0 156.255 26.954">
  <defs>
    <clipPath id="clip-path">
      <rect id="Rectangle_7" data-name="Rectangle 7" width="156.255" height="26.954" fill="none"/>
    </clipPath>
  </defs>
  <g id="Group_25332" data-name="Group 25332" transform="translate(0 0)">
    <g id="Group_4" data-name="Group 4" transform="translate(0 -0.001)" clip-path="url(#clip-path)">
      <path id="Path_16" data-name="Path 16" d="M91.255,0c-4.835,0-7.389,2.4-7.389,6.439V17.461c1.444.479,2.853.985,4.207,1.522.286.112.554.221.811.327V6.177a2.51,2.51,0,0,1,5.017,0V9.209h4.744V6.439C98.645,2.4,96.091,0,91.255,0" transform="translate(-4.709 0)" fill="#fff"/>
      <path id="Path_17" data-name="Path 17" d="M87.969,23.444c-1.248-.244-2.6-.477-4.007-.7.48,3.3,2.974,5.217,7.3,5.217,4.835,0,7.39-2.4,7.39-6.439V18.007H93.905v3.818c0,1.723-1,2.4-2.509,2.4a2.886,2.886,0,0,1-1.613-.412c-.025,0-.05,0-.075-.008-.473-.1-1.054-.225-1.74-.358" transform="translate(-4.715 -1.011)" fill="#fff"/>
      <path id="Path_18" data-name="Path 18" d="M101.267,4.14h5.246V26.6h5.017V4.14h5.245V.4H101.267Z" transform="translate(-5.687 -0.022)" fill="#fff"/>
      <rect id="Rectangle_6" data-name="Rectangle 6" width="5.017" height="26.205" transform="translate(113.51 0.375)" fill="#fff"/>
      <path id="Path_19" data-name="Path 19" d="M136.774,0c-4.926,0-7.618,2.4-7.618,6.588V20.365c0,4.193,2.692,6.588,7.618,6.588s7.618-2.4,7.618-6.588V6.588C144.392,2.4,141.7,0,136.774,0m2.6,20.627a2.6,2.6,0,0,1-5.2,0V6.327a2.6,2.6,0,0,1,5.2,0Z" transform="translate(-7.253 0)" fill="#fff"/>
      <path id="Path_20" data-name="Path 20" d="M160.145.4V16.082L155.081.4h-6.2V26.6h4.469V7.472l6.2,19.13h5.062V.4Z" transform="translate(-8.36 -0.022)" fill="#fff"/>
      <path id="Path_21" data-name="Path 21" d="M74.392,21.234c-1.566-.138-3.656-.24-4.413-.274l3.788,6.906h9.491l-4.215-6.108c-.436-.058-2.764-.36-4.65-.525" transform="translate(-3.93 -1.177)" fill="#fff"/>
      <path id="Path_22" data-name="Path 22" d="M70.955,14.934c1.936.287,3.355.609,4.026.775L67.392,4.791H61.061l5.309,9.645c.427.025,2.3.156,4.585.5" transform="translate(-3.429 -0.269)" fill="#fff"/>
      <path id="Path_23" data-name="Path 23" d="M70,.187H64.478L61.635,3.675h6.148Z" transform="translate(-3.461 -0.01)" fill="#fff"/>
      <path id="Path_24" data-name="Path 24" d="M59.279,5.448,41.473,27H51.835L62.277,10.8Z" transform="translate(-2.329 -0.305)" fill="#fff"/>
      <path id="Path_25" data-name="Path 25" d="M48.459,17.4c-.737.171-2.3.562-4.362,1.235A67.539,67.539,0,0,0,36.9,21.456c-1.153.531-2.08,1-2.73,1.339.689-.161,1.636-.375,2.73-.6,1.233-.255,2.654-.526,4.111-.761,3.423-.55,4.384-.666,4.627-.69Z" transform="translate(-1.919 -0.977)" fill="#fff"/>
      <path id="Path_26" data-name="Path 26" d="M87.7,22.273c.594.141,1.1.268,1.505.377-.531-.29-1.24-.66-2.1-1.076a59.852,59.852,0,0,0-6.549-2.685A57.134,57.134,0,0,0,63.88,15.744c-.479-.014-.906-.019-1.265-.019-.515,0-.882.009-1.04.014l-2.506,3.9c1.094-.04,1.555-.053,2.134-.053.294,0,.617,0,1.07.008l1.17.01A120.528,120.528,0,0,1,81.127,21c2.783.434,5,.9,6.572,1.271" transform="translate(-3.317 -0.883)" fill="#fff"/>
      <path id="Path_27" data-name="Path 27" d="M4.327.116,0,26.681H3.871l.721-5.2h4.82l.72,5.2h4.175L9.981.116Zm.8,17.76,1.859-13.4,1.9,13.4Z" transform="translate(0 -0.006)" fill="#607891"/>
      <path id="Path_28" data-name="Path 28" d="M23.625.116H17.249V26.681h6.376c4.174,0,6.224-2.315,6.224-6.565V6.681c0-4.25-2.05-6.565-6.224-6.565m2.049,20.19c0,1.9-.8,2.58-2.126,2.58H21.424V3.911h2.125c1.329,0,2.126.683,2.126,2.58Z" transform="translate(-0.969 -0.006)" fill="#607891"/>
      <path id="Path_29" data-name="Path 29" d="M36.438,19.542c.433-.2.871-.389,1.31-.58V15.106h5.388v-3.8H37.748V3.91h6.868V.116H33.573V20.958c.028-.017.062-.04.088-.053.865-.454,1.8-.912,2.777-1.363" transform="translate(-1.885 -0.006)" fill="#607891"/>
      <path id="Path_30" data-name="Path 30" d="M34.378,24.142a1.134,1.134,0,0,1-.237.027c-.157,0-.358.015-.568.02v3.8h4.175V23.416c-.224.045-.439.084-.665.131-1.084.224-2.023.435-2.7.595" transform="translate(-1.885 -1.314)" fill="#607891"/>
    </g>
  </g>
</svg>
